# xmcd CD database file
#
# Track frame offsets:
#	182
#	34807
#	54954
#	74035
#	109226
#	143099
#	161920
#	178935
#	200087
#	211391
#	234926
#	255809
#	277073
#
# Disc length: 4015 seconds
#
# Revision: 1
# Processed by: cddbd v1.5.2PL0 Copyright (c) Steve Scherf et al.
# Submitted via: CDex 1.51
#
DISCID=c60fad0d
DTITLE=Gov't Mule - Mighty High
DYEAR=2007
DGENRE=Blues
TTITLE0=Gov't Mule - I'm A Ram (Original Mix)
TTITLE1=Gov't Mule - Rebel With A Cause
TTITLE2=Gov't Mule - Horseflies
TTITLE3=Gov't Mule - The Shape I'm In
TTITLE4=Gov't Mule - Play With Fire
TTITLE5=Gov't Mule - Hard To Handle
TTITLE6=Gov't Mule - Hard to Dubya
TTITLE7=Gov't Mule - Unblow Your Horn
TTITLE8=Gov't Mule - Unthrow That Spear
TTITLE9=Gov't Mule - So Ram, So Rong
TTITLE10=Gov't Mule - Outta Shape
TTITLE11=Gov't Mule - Reblow Your Mind
TTITLE12=Gov't Mule - Plasticene Era
EXTD=YEAR: 2007
EXTT0=
EXTT1=
EXTT2=
EXTT3=
EXTT4=
EXTT5=
EXTT6=
EXTT7=
EXTT8=
EXTT9=
EXTT10=
EXTT11=
EXTT12=
PLAYORDER=
